# AST/ASF file generated using VICON BodyLanguage
# -----------------------------------------------
:version 1.10
:name VICON
:units
  mass 1.0
  length 0.45
  angle deg
:documentation
   .ast/.asf automatically generated from VICON data using
   VICON BodyBuilder and BodyLanguage model FoxedUp or BRILLIANT.MOD
:root
   order TX TY TZ RX RY RZ
   axis XYZ
   position 0 0 0  
   orientation 0 0 0 
:bonedata
  begin
     id 1 
     name lhipjoint
     direction 0.700308 -0.549349 0.455834 
     length 2.59063 
     axis 0 0 0  XYZ
  end
  begin
     id 2 
     name lfemur
     direction 0.34202 -0.939693 0  
     length 6.31066  
     axis 0 0 20  XYZ
    dof rx ry rz
    limits (-160.0 20.0)
           (-70.0 70.0)
           (-60.0 70.0)
  end
  begin
     id 3 
     name ltibia
     direction 0.34202 -0.939693 0   
     length 7.36093   
     axis 0 0 20   XYZ
    dof rx
    limits (-10.0 170.0)
  end
  begin
     id 4 
     name lfoot
     direction 0.0905332 -0.248738 0.96433   
     length 2.0233   
     axis -90 7.62852e-016 20   XYZ
    dof rx rz
    limits (-45.0 90.0)
           (-70.0 20.0)
  end
  begin
     id 5 
     name ltoes
     direction 1.53573e-011 -4.21855e-011 1   
     length 1.01524   
     axis -90 7.62852e-016 20   XYZ
    dof rx
    limits (-90.0 20.0)
  end
  begin
     id 6 
     name rhipjoint
     direction -0.61416 -0.607328 0.503944   
     length 2.34332  
     axis 0 0 0  XYZ 
  end
  begin
     id 7 
     name rfemur
     direction -0.34202 -0.939693 0   
     length 6.58548   
     axis 0 0 -20   XYZ
    dof rx ry rz
    limits (-160.0 20.0)
           (-70.0 70.0)
           (-70.0 60.0)
  end
  begin
     id 8 
     name rtibia
     direction -0.34202 -0.939693 0   
     length 7.20707   
     axis 0 0 -20   XYZ
    dof rx
    limits (-10.0 170.0)
 end
 begin
     id 9 
     name rfoot
     direction -0.136772 -0.375778 0.916561   
     length 1.92184  
     axis -90 -7.62852e-016 -20   XYZ
    dof rx rz
    limits (-45.0 90.0)
           (-20.0 70.0)
  end
  begin
     id 10 
     name rtoes
     direction -1.53535e-011 -4.21828e-011 1   
     length 0.951089   
     axis -90 -7.62852e-016 -20   XYZ
    dof rx
    limits (-90.0 20.0)
  end
  begin
     id 11 
     name lowerback
     direction -0.0444974 0.988086 -0.147332   
     length 1.9609   
     axis 0 0 0   XYZ
    dof rx ry rz
    limits (-20.0 45.0)
           (-30.0 30.0)
           (-30.0 30.0)
  end
  begin
     id 12 
     name upperback
     direction 0.00613146 0.999513 0.0306081   
     length 1.94944   
     axis 0 0 0   XYZ
    dof rx ry rz
    limits (-20.0 45.0)
           (-30.0 30.0)
           (-30.0 30.0)
  end
  begin
     id 13 
     name thorax
     direction 0.0254621 0.994518 0.101418   
     length 2.0119   
     axis 0 0 0   XYZ
    dof rx ry rz
    limits (-20.0 45.0)
           (-30.0 30.0)
           (-30.0 30.0)
  end
  begin
     id 14 
     name lowerneck
     direction 0.0168698 0.977854 0.208608   
     length 1.6375   
     axis 0 0 0   XYZ
    dof rx ry rz
    limits (-20.0 45.0)
           (-30.0 30.0)
           (-30.0 30.0)
  end
  begin
     id 15 
     name upperneck
     direction -0.0283988 0.989338 -0.142843   
     length 1.6851   
     axis 0 0 0   XYZ
    dof rx ry rz
    limits (-20.0 45.0)
           (-30.0 30.0)
           (-30.0 30.0)
  end
  begin
     id 16
     name head
     direction -0.0129422 0.99741 -0.0707489  
     length 1.69029  
     axis 0 0 0   XYZ
    dof rx ry rz
    limits (-20.0 45.0)
           (-30.0 30.0)
           (-30.0 30.0)
  end
  begin
     id 17 
     name lclavicle
     direction 0.820295 0.564628 -0.0911715  
     length 3.16484  
     axis 0 0 0   XYZ
    dof ry rz
    limits (-20.0 10.0)
           (0.0 20.0)
  end
  begin
     id 18 
     name lhumerus
     direction 1 -4.48969e-011 1.00186e-027   
     length 5.17853   
     axis 180 -30 -90   XYZ
    dof rx ry rz
    limits (-60.0 90.0)
           (-90.0 90.0)
           (-90.0 90.0)
  end
  begin
     id 19
     name lradius
     direction 1 -4.48966e-011 -1.52922e-027   
     length 3.40399   
     axis 180 -30 -90   XYZ
    dof rx
    limits (-10.0 170.0)
  end
  begin
     id 20
     name lwrist
     direction 1 -4.48981e-011 -3.80893e-027   
     length 1.70199   
     axis 1.1049e-015 90 90   XYZ
    dof ry
    limits (-180.0 0.0)
 end
  begin
     id 21 
     name lhand
     direction 1 -4.48957e-011 -7.61786e-027   
     length 0.708964   
     axis 4.86085e-015 90 90   XYZ
    dof rx rz
    limits (-90.0 90.0)
           (-45.0 45.0)
  end
  begin
     id 22 
     name lfingers
     direction 1 -4.48929e-011 -1.52357e-026   
     length 0.571585   
     axis 9.7217e-015 90 90   XYZ
    dof rx
    limits (0.0 90.0)
  end
  begin
     id 23
     name lthumb
     direction 0.707107 -6.34905e-011 0.707107   
     length 0.820685   
     axis -90 45 2.85299e-015   XYZ
    dof rx rz
    limits (-45.0 45.0)
           (-45.0 45.0)
  end
  begin
     id 24 
     name rclavicle
     direction -0.858602 0.463947 -0.218075   
     length 3.35137  
     axis 0 0 0   XYZ 
    dof ry rz
    limits (-10.0 20.0)
           (-20.0 0.0)
  end
  begin
     id 25 
     name rhumerus
     direction -1 -4.48969e-011 -1.98511e-027  
     length 5.42351   
     axis 180 30 90   XYZ
    dof rx ry rz
    limits (-90.0 60.0)
           (-90.0 90.0)
           (-90.0 90.0)
  end
  begin
     id 26 
     name rradius
     direction -1 -4.48961e-011 -2.82624e-027   
     length 3.42066   
     axis 180 30 90   XYZ
    dof rx
    limits (-10.0 170.0)
  end
  begin
     id 27 
     name rwrist
     direction -1 -4.48966e-011 -3.80893e-027   
     length 1.71033   
     axis 1.1049e-015 -90 -90   XYZ
    dof ry
    limits (-180.0 0.0)
  end
  begin
     id 28
     name rhand
     direction -1 -4.48964e-011 -7.61786e-027   
     length 0.743608   
     axis 4.86085e-015 -90 -90   XYZ
    dof rx rz
    limits (-90.0 90.0)
           (-45.0 45.0)
  end
  begin
     id 29
     name rfingers
     direction -1 -4.48961e-011 -1.52357e-026   
     length 0.599516   
     axis 9.7217e-015 -90 -90   XYZ
    dof rx
    limits (0.0 90.0)
  end
  begin
     id 30
     name rthumb
     direction -0.707107 -6.34913e-011 0.707107   
     length 0.860789   
     axis -90 -45 -2.85299e-015   XYZ
    dof rx rz
    limits (-45.0 45.0)
           (-45.0 45.0)
  end
:hierarchy
  begin
    root lhipjoint rhipjoint lowerback
    lhipjoint lfemur
    lfemur ltibia
    ltibia lfoot
    lfoot ltoes
    rhipjoint rfemur
    rfemur rtibia
    rtibia rfoot
    rfoot rtoes
    lowerback upperback
    upperback thorax
    thorax lowerneck lclavicle rclavicle
    lowerneck upperneck
    upperneck head
    lclavicle lhumerus
    lhumerus lradius
    lradius lwrist
    lwrist lhand lthumb
    lhand lfingers
    rclavicle rhumerus
    rhumerus rradius
    rradius rwrist
    rwrist rhand rthumb
    rhand rfingers
  end

#!OML:ASF E:\mmandel\Project 1\Capture day 1\Session 2\Subject.ASF
:FULLY-SPECIFIED
:DEGREES
281
root -2.37688 2.80868 -0.98425 161.032 82.4078 -160.667
lowerback 38.2371 0.936581 -7.02756
upperback 16.828 1.48878 0.135762
thorax -0.0618554 1.47552 3.2848
lowerneck -6.30425 -0.078148 2.76904
upperneck 28.9165 -0.768599 4.93027
head 10.2627 0.878713 1.26384
rclavicle -1.19271e-015 -4.13472e-014
rhumerus -50.7129 15.124 -86.541
rradius 80.9329
rwrist -64.7341
rhand -25.6216 13.5025
rfingers 7.12502
rthumb 0.911182 -16.4753
lclavicle -1.19271e-015 -4.13472e-014
lhumerus -46.3573 -44.3762 75.0268
lradius 83.0479
lwrist 68.3638
lhand -29.569 -11.1539
lfingers 7.12502
lthumb -2.90124 18.8061
rfemur -91.7149 -12.8884 26.7385
rtibia 81.8759
rfoot 13.0992 0.854225
rtoes -12.4211
lfemur -95.9073 30.2886 -29.9963
ltibia 74.6634
lfoot 23.4771 -8.47372
ltoes 9.80567
282
root -2.35887 2.82056 -0.983785 161.693 82.4147 -160.503
lowerback 37.9735 0.949734 -6.90155
upperback 17.0542 1.59758 0.151294
thorax 0.10364 1.5335 3.22756
lowerneck -6.2495 -0.080207 2.85901
upperneck 28.3775 -0.781873 4.86329
head 10.0524 0.846663 1.20943
rclavicle 2.46493e-014 4.85035e-014
rhumerus -49.9476 14.7542 -86.5126
rradius 80.2994
rwrist -63.8276
rhand -26.4749 13.3538
rfingers 7.12502
rthumb 0.0870448 -16.6259
lclavicle 2.46493e-014 4.85035e-014
lhumerus -45.612 -44.7479 74.7961
lradius 82.7888
lwrist 68.6472
lhand -29.6933 -10.7255
lfingers 7.12502
lthumb -3.02129 19.2328
rfemur -92.3638 -13.0111 27.0661
rtibia 82.0697
rfoot 13.1257 0.834526
rtoes -12.8223
lfemur -96.7544 30.3785 -30.4344
ltibia 74.8933
lfoot 23.996 -8.65297
ltoes 10.0432
283
root -2.3314 2.83417 -0.987395 162.591 82.4126 -160.12
lowerback 37.8586 0.954763 -6.79372
upperback 17.132 1.66423 0.189062
thorax 0.21568 1.56993 3.19644
lowerneck -6.5529 -0.039752 2.817
upperneck 28.2158 -0.749243 4.84952
head 10.051 0.84579 1.21238
rclavicle -1.66979e-014 -4.92986e-014
rhumerus -49.0045 14.3995 -86.3978
rradius 79.626
rwrist -63.8307
rhand -27.6994 13.2141
rfingers 7.12502
rthumb -1.09555 -16.7628
lclavicle -1.66979e-014 -4.92986e-014
lhumerus -44.9491 -45.013 74.6266
lradius 82.4877
lwrist 68.9706
lhand -29.8447 -10.6086
lfingers 7.12502
lthumb -3.16747 19.3477
rfemur -93.0992 -13.2422 27.4975
rtibia 82.3828
rfoot 13.1195 0.920932
rtoes -13.0629
lfemur -97.6111 30.4242 -30.8827
ltibia 75.1667
lfoot 24.3346 -8.9322
ltoes 10.6841
284
root -2.30271 2.84811 -0.993222 162.595 82.3271 -160.563
lowerback 38.0725 0.950407 -6.76468
upperback 17.0306 1.64487 0.168086
thorax 0.0400424 1.56756 3.15529
lowerneck -6.64525 0.0373893 3.076
upperneck 28.0878 -0.652581 4.6818
head 10.0208 0.891421 1.1157
rclavicle 0 -3.10104e-014
rhumerus -48.1928 13.9897 -86.2934
rradius 78.9566
rwrist -64.5993
rhand -28.552 13.3181
rfingers 7.12502
rthumb -1.91905 -16.653
lclavicle 0 -3.10104e-014
lhumerus -44.5746 -45.3731 74.5835
lradius 82.1222
lwrist 69.3697
lhand -29.7573 -10.4607
lfingers 7.12502
lthumb -3.08303 19.4967
rfemur -93.7944 -13.6043 27.8452
rtibia 82.7243
rfoot 13.099 1.04021
rtoes -12.9368
lfemur -98.3076 30.3731 -31.3641
ltibia 75.4436
lfoot 24.459 -9.23959
ltoes 11.7881
285
root -2.23902 2.83427 -1.01967 165.659 81.6391 -159.107
lowerback 36.8967 0.413162 -6.04221
upperback 16.7826 1.17584 0.12714
thorax 0.154925 1.33253 2.91533
lowerneck -6.82798 -0.476045 2.43147
upperneck 28.0135 -1.40391 5.10428
head 10.0419 0.52177 1.29753
rclavicle 4.11484e-014 3.4191e-014
rhumerus -47.6067 13.545 -86.1272
rradius 78.3412
rwrist -65.7476
rhand -28.7769 13.3265
rfingers 7.12502
rthumb -2.1362 -16.6425
lclavicle 4.11484e-014 3.4191e-014
lhumerus -44.359 -45.8577 74.7593
lradius 81.605
lwrist 69.7146
lhand -29.7325 -10.147
lfingers 7.12502
lthumb -3.05913 19.8108
rfemur -96.2159 -14.3505 28.3788
rtibia 83.2678
rfoot 13.2692 0.885433
rtoes -12.2536
lfemur -100.609 29.0683 -32.2015
ltibia 75.8801
lfoot 24.709 -9.61479
ltoes 11.5949
286
root -2.20319 2.83735 -1.03087 166.34 81.3467 -159.322
lowerback 36.448 0.307304 -5.91716
upperback 16.7069 1.07771 0.204618
thorax 0.21705 1.26931 2.97188
lowerneck -6.64551 -0.235871 2.55774
upperneck 27.5341 -1.04922 4.98191
head 9.82404 0.659991 1.25737
rclavicle -4.37326e-015 2.38542e-014
rhumerus -46.8175 13.0926 -85.7702
rradius 77.6499
rwrist -66.929
rhand -28.9643 13.344
rfingers 7.12502
rthumb -2.31721 -16.6232
lclavicle -4.37326e-015 2.38542e-014
lhumerus -43.9444 -46.3137 74.9426
lradius 80.9869
lwrist 69.9815
lhand -29.7806 -10.0691
lfingers 7.12502
lthumb -3.10554 19.888
rfemur -97.5179 -14.7256 28.6434
rtibia 83.6407
rfoot 13.2736 0.601247
rtoes -10.9481
lfemur -101.888 28.5464 -32.8299
ltibia 76.1911
lfoot 25.0698 -9.84513
ltoes 12.7221
287
root -2.18074 2.85067 -1.03029 165.089 81.3602 -161.029
lowerback 36.0187 0.524412 -6.29692
upperback 16.9983 1.308 0.351945
thorax 0.662564 1.34803 3.27319
lowerneck -6.91884 -0.455378 2.45047
upperneck 27.2326 -1.36093 4.916
head 9.77148 0.481737 1.21478
rclavicle -8.15017e-015 2.70347e-014
rhumerus -45.5568 12.6249 -85.1835
rradius 76.7714
rwrist -68.0369
rhand -29.3327 13.1625
rfingers 7.12502
rthumb -2.67306 -16.8005
lclavicle -8.15017e-015 2.70347e-014
lhumerus -43.1224 -46.7536 74.9294
lradius 80.3491
lwrist 70.0025
lhand -29.7115 -10.2442
lfingers 7.12502
lthumb -3.03885 19.7139
rfemur -98.1856 -14.8724 28.7548
rtibia 83.9231
rfoot 13.3441 0.112567
rtoes -9.37212
lfemur -102.599 28.6319 -33.5029
ltibia 76.4309
lfoot 25.5776 -9.96893
ltoes 14.4677
288
root -2.16502 2.86727 -1.02703 164.588 81.4344 -161.823
lowerback 36.6719 0.664062 -6.47785
upperback 16.6791 1.34534 0.391461
thorax 0.0980802 1.36299 3.36815
lowerneck -6.95151 -0.515591 2.68409
upperneck 27.204 -1.40909 4.58614
head 9.76448 0.444655 1.05326
rclavicle 1.78906e-014 3.97569e-015
rhumerus -45.0258 12.5997 -85.0446
rradius 75.8007
rwrist -68.9378
rhand -29.3531 12.8678
rfingers 7.12502
rthumb -2.69273 -17.095
lclavicle 1.78906e-014 3.97569e-015
lhumerus -43.6514 -47.1569 75.6216
lradius 79.774
lwrist 69.447
lhand -29.4349 -10.6259
lfingers 7.12502
lthumb -2.7717 19.3358
rfemur -98.5414 -14.9181 28.8997
rtibia 84.0963
rfoot 13.2737 -0.488915
rtoes -9.25817
lfemur -103 28.7422 -33.793
ltibia 76.5977
lfoot 25.9434 -10.0868
ltoes 16.6078
289
root -2.14953 2.88251 -1.0297 165.776 81.4399 -160.971
lowerback 36.9328 0.601989 -6.28484
upperback 16.5771 1.30404 0.394461
thorax -0.0981616 1.35816 3.27366
lowerneck -6.91251 -0.499257 2.74674
upperneck 26.8056 -1.37968 4.47671
head 9.61156 0.431546 0.999395
rclavicle 1.21259e-014 -8.74653e-015
rhumerus -44.2828 12.7641 -85.0267
rradius 74.755
rwrist -69.503
rhand -29.476 12.8461
rfingers 7.12502
rthumb -2.81139 -17.1151
lclavicle 1.21259e-014 -8.74653e-015
lhumerus -43.7788 -47.5965 75.983
lradius 79.0557
lwrist 68.6658
lhand -29.3023 -11.1196
lfingers 7.12502
lthumb -2.6437 18.8438
rfemur -98.9658 -15.0686 29.3103
rtibia 84.2897
rfoot 13.0122 -0.786494
rtoes -10.6914
lfemur -103.395 28.5965 -33.7592
ltibia 76.7636
lfoot 26.1749 -10.1583
ltoes 18.033
290
root -2.12244 2.89102 -1.03942 166.298 81.3217 -161.062
lowerback 36.5413 0.455232 -6.06856
upperback 16.6514 1.21177 0.336866
thorax 0.114148 1.31814 3.14313
lowerneck -7.01044 -0.424458 2.79716
upperneck 26.5319 -1.32401 4.58155
head 9.53288 0.459634 1.02788
rclavicle 9.74045e-015 3.49861e-014
rhumerus -43.3822 13.0634 -85.0079
rradius 73.6568
rwrist -69.7389
rhand -29.9305 12.9424
rfingers 7.12502
rthumb -3.25037 -17.0125
lclavicle 9.74045e-015 3.49861e-014
lhumerus -43.4942 -48.1556 76.1552
lradius 78.1664
lwrist 68.0288
lhand -29.418 -11.7844
lfingers 7.12502
lthumb -2.75543 18.1775
rfemur -99.847 -15.3518 29.6616
rtibia 84.5819
rfoot 12.915 -1.02185
rtoes -10.3456
lfemur -104.208 28.2405 -34.1199
ltibia 76.9855
lfoot 26.4095 -10.2712
ltoes 17.764
291
root -2.07328 2.89064 -1.05646 166.072 80.9835 -162.401
lowerback 35.7773 0.262304 -5.93725
upperback 16.4724 0.980669 0.285895
thorax 0.182935 1.18257 3.10776
lowerneck -6.84989 -0.416067 2.78296
upperneck 26.2888 -1.28467 4.51072
head 9.414 0.456507 1.00491
rclavicle -3.18055e-015 -2.62396e-014
rhumerus -42.8444 13.6216 -85.0517
rradius 72.4368
rwrist -69.6471
rhand -30.3398 13.2547
rfingers 7.12502
rthumb -3.64561 -16.6938
lclavicle -3.18055e-015 -2.62396e-014
lhumerus -43.7144 -48.8694 76.8611
lradius 77.2312
lwrist 67.642
lhand -29.4749 -12.6816
lfingers 7.12502
lthumb -2.81038 17.2797
rfemur -101.486 -15.7299 29.7808
rtibia 84.9959
rfoot 12.9952 -1.51027
rtoes -8.45143
lfemur -105.629 27.4798 -34.9777
ltibia 77.2875
lfoot 26.4017 -10.4876
ltoes 17.2267
292
root -2.03355 2.89587 -1.07345 167.035 80.6236 -162.448
lowerback 35.4872 0.0358974 -5.64731
upperback 16.0581 0.702172 0.314884
thorax -0.16222 1.03542 3.06869
lowerneck -6.59501 -0.605934 2.65991
upperneck 26.2534 -1.49346 4.43794
head 9.35424 0.338186 0.979393
rclavicle -1.13307e-014 2.3059e-014
rhumerus -42.6088 14.5343 -85.2396
rradius 71.0646
rwrist -69.3414
rhand -30.8141 13.8758
rfingers 7.12502
rthumb -4.10366 -16.0644
lclavicle -1.13307e-014 2.3059e-014
lhumerus -44.4435 -49.5866 78.0012
lradius 76.2965
lwrist 67.3161
lhand -29.4373 -13.6399
lfingers 7.12502
lthumb -2.77407 16.3218
rfemur -102.902 -16.1721 30.0806
rtibia 85.3139
rfoot 13.0037 -2.01079
rtoes -7.55204
lfemur -106.773 26.6279 -35.3844
ltibia 77.5816
lfoot 26.2706 -10.7233
ltoes 17.3872
293
root -2.0131 2.90933 -1.08377 168.808 80.4842 -161.233
lowerback 35.6114 -0.0839371 -5.28083
upperback 15.7835 0.61354 0.43257
thorax -0.509844 1.00008 3.01897
lowerneck -6.46688 -0.835956 2.649
upperneck 26.1766 -1.78558 4.35226
head 9.30496 0.188865 0.922031
rclavicle 1.11319e-014 3.02153e-014
rhumerus -42.3047 15.6469 -85.4504
rradius 69.6689
rwrist -69.0179
rhand -31.475 14.6958
rfingers 7.12502
rthumb -4.74184 -15.2312
lclavicle 1.11319e-014 3.02153e-014
lhumerus -45.0353 -50.2934 79.1239
lradius 75.3364
lwrist 66.6774
lhand -29.7258 -14.6359
lfingers 7.12502
lthumb -3.05262 15.322
rfemur -103.601 -16.5069 30.6326
rtibia 85.4833
rfoot 12.8897 -2.41597
rtoes -7.34674
lfemur -107.334 26.1819 -35.1349
ltibia 77.8652
lfoot 26.3029 -10.9761
ltoes 17.7938
